<svg width="159" height="41" viewBox="0 0 159 41" fill="none" xmlns="http://www.w3.org/2000/svg">
<path d="M127.657 38.8646L128.698 33.1059H124.667L113.129 32.6828L123.735 32.1062L123.592 31.4622L120.034 30.9567L123.415 30.6759L123.19 29.8858L117.664 29.0621C117.664 29.0621 123.675 28.4031 123.765 28.4031H129.577L130.009 26.0405C130.531 23.1948 131.707 21.0905 133.559 19.5291C135.411 17.9678 137.774 17.1777 140.637 17.1777C141.794 17.1777 142.515 17.4436 142.853 17.9977C143.092 18.4701 143.26 18.9747 143.353 19.4954C143.507 20.0124 143.564 20.553 143.522 21.0905C143.42 21.6971 142.699 21.9105 141.373 21.9105H140.915C138.529 21.9105 137.079 23.2584 136.591 25.9843L136.151 28.3731H138.924C139.957 28.3731 140.329 29.0846 140.051 30.6759C139.743 32.3383 139.081 33.076 138.052 33.076H135.287L134.25 38.8347L127.657 38.8646Z" fill="#2A55E5"/>
<path d="M113.103 3.90398L115.256 3.2113C115.477 3.12834 115.711 3.08522 115.947 3.08398H141.065C141.32 3.08533 141.574 3.12575 141.816 3.2038L143.695 3.89649L142.789 4.18855C142.342 4.387 142.188 4.56297 142.117 4.76142L142.049 5.04599V8.37841H114.798V5.44663V5.15456C114.792 4.97469 114.735 4.80017 114.633 4.65156C114.531 4.50296 114.389 4.38646 114.223 4.31585L113.096 3.97138L113.103 3.90398Z" fill="#FCC628"/>
<path d="M135.832 4.82147C135.718 4.8123 135.603 4.82596 135.494 4.86167C135.385 4.89738 135.284 4.9544 135.198 5.02939C135.111 5.10438 135.041 5.19584 134.99 5.29837C134.94 5.40091 134.911 5.51245 134.904 5.62648C134.919 5.8611 135.023 6.08123 135.195 6.2421C135.367 6.40297 135.594 6.49251 135.83 6.49251C136.066 6.49251 136.293 6.40297 136.465 6.2421C136.637 6.08123 136.741 5.8611 136.756 5.62648C136.748 5.51314 136.718 5.40241 136.668 5.30061C136.617 5.19881 136.547 5.10794 136.461 5.03318C136.375 4.95843 136.276 4.90127 136.168 4.86494C136.06 4.82861 135.946 4.81384 135.832 4.82147ZM120.865 4.82147C120.751 4.8123 120.636 4.82596 120.527 4.86167C120.418 4.89738 120.317 4.9544 120.231 5.02939C120.144 5.10438 120.074 5.19584 120.023 5.29837C119.973 5.40091 119.943 5.51245 119.937 5.62648C119.952 5.8611 120.056 6.08123 120.228 6.2421C120.4 6.40297 120.627 6.49251 120.863 6.49251C121.099 6.49251 121.326 6.40297 121.498 6.2421C121.67 6.08123 121.774 5.8611 121.789 5.62648C121.782 5.51297 121.752 5.40198 121.702 5.29995C121.651 5.19792 121.581 5.10687 121.495 5.03202C121.409 4.95717 121.309 4.90002 121.201 4.86389C121.093 4.82775 120.979 4.81334 120.865 4.82147ZM143.909 6.50265V3.85544C143.909 3.79553 143.86 3.72813 143.706 3.66822L141.715 2.95307C141.479 2.88393 141.232 2.8548 140.986 2.86694H115.868C115.622 2.8548 115.376 2.88393 115.139 2.95307L113.148 3.66822C112.994 3.72813 112.949 3.79553 112.945 3.85544V6.50265L110.432 8.3748V36.8988C110.434 37.1582 110.487 37.4147 110.589 37.6536C110.69 37.8925 110.838 38.1091 111.024 38.291C111.21 38.4729 111.429 38.6166 111.671 38.7137C111.912 38.8108 112.17 38.8595 112.431 38.857H127.755L128.795 33.0983H124.749L113.212 32.6752L123.814 32.0986L123.675 31.4546L120.117 30.9491L123.498 30.6683L123.273 29.8782L117.747 29.0545C117.747 29.0545 123.757 28.3955 123.844 28.3955H129.656L130.103 26.0478C130.621 23.2022 131.801 21.0979 133.653 19.5365C135.505 17.9751 137.868 17.1851 140.731 17.1851C141.888 17.1851 142.609 17.4509 142.943 18.0051C143.185 18.4765 143.355 18.9813 143.447 19.5028C143.599 20.0201 143.656 20.5604 143.616 21.0979C143.514 21.7045 142.789 21.9179 141.463 21.9179H141.009C138.623 21.9179 137.173 23.2658 136.685 25.9917L136.245 28.3805H139.025C140.058 28.3805 140.43 29.0919 140.152 30.6833C139.84 32.3457 139.183 33.0833 138.15 33.0833H135.385L134.352 38.8421H144.439C144.96 38.8441 145.461 38.6412 145.833 38.2774C146.205 37.9136 146.418 37.4182 146.426 36.8988V8.38229L143.909 6.50265ZM142.549 4.25608C142.431 4.30346 142.323 4.37485 142.234 4.46574C142.145 4.55662 142.075 4.66501 142.03 4.78401C142.033 4.80017 142.033 4.81654 142.03 4.83269C142.032 4.84636 142.032 4.8602 142.03 4.87387C142.03 4.87387 142.03 4.8926 142.03 4.90383C142.03 4.91507 142.03 4.90384 142.03 4.93005C142.03 4.93005 142.03 4.95625 142.03 4.96748C142.032 4.97991 142.032 4.99251 142.03 5.00494V8.32237H114.888V5.00494C114.881 4.83041 114.824 4.66155 114.722 4.51917C114.621 4.37679 114.48 4.26711 114.317 4.20365L113.276 3.88915L115.192 3.24512C115.413 3.16664 115.645 3.12488 115.879 3.12155H141.001C141.256 3.12272 141.509 3.16185 141.752 3.23762L143.533 3.94905L142.549 4.25608Z" fill="#F7E830"/>
<path fill-rule="evenodd" clip-rule="evenodd" d="M120.88 4.7344C121.068 4.73292 121.252 4.78713 121.41 4.89015C121.567 4.99317 121.69 5.14038 121.763 5.31312C121.836 5.48586 121.856 5.67638 121.821 5.86052C121.785 6.04467 121.696 6.21417 121.564 6.34755C121.431 6.48093 121.262 6.57219 121.078 6.60977C120.894 6.64736 120.702 6.62957 120.528 6.55867C120.354 6.48777 120.205 6.36695 120.1 6.21151C119.994 6.05606 119.938 5.87298 119.937 5.68547C119.936 5.56124 119.96 5.43805 120.007 5.32295C120.053 5.20785 120.123 5.10311 120.21 5.01475C120.298 4.92638 120.402 4.85612 120.517 4.80802C120.632 4.75991 120.755 4.73489 120.88 4.7344V4.7344Z" fill="#B19030"/>
<path fill-rule="evenodd" clip-rule="evenodd" d="M135.832 4.7344C136.02 4.73292 136.204 4.78713 136.361 4.89015C136.519 4.99317 136.642 5.14038 136.715 5.31312C136.788 5.48586 136.808 5.67638 136.773 5.86052C136.737 6.04467 136.647 6.21417 136.515 6.34755C136.383 6.48093 136.214 6.57219 136.03 6.60977C135.845 6.64736 135.654 6.62957 135.48 6.55867C135.306 6.48777 135.156 6.36695 135.051 6.21151C134.946 6.05606 134.889 5.87298 134.889 5.68547C134.888 5.56124 134.911 5.43805 134.958 5.32295C135.005 5.20785 135.074 5.10311 135.162 5.01475C135.25 4.92638 135.354 4.85612 135.469 4.80802C135.584 4.75991 135.707 4.73489 135.832 4.7344V4.7344Z" fill="#B19030"/>
<path opacity="0.5" d="M120.117 11.328C120.317 13.1872 121.178 14.9137 122.544 16.1955C124.132 17.6307 126.201 18.4226 128.345 18.4159C130.824 18.4159 132.932 17.6446 134.438 16.1693C135.705 14.8492 136.464 13.1252 136.579 11.3018C136.447 12.9345 135.678 14.4507 134.438 15.5253C132.935 16.862 130.824 17.5697 128.345 17.5697C126.235 17.5908 124.184 16.8785 122.544 15.5553C121.211 14.5168 120.34 12.9992 120.117 11.328V11.328Z" fill="#BD990B"/>
<path opacity="0.5" d="M121.289 11.2917C121.476 12.7418 122.221 14.0628 123.367 14.976C124.76 16.1321 126.52 16.7594 128.333 16.7471C130.456 16.7471 132.259 16.1293 133.547 14.9648C134.612 14.0196 135.269 12.7008 135.381 11.2842C135.318 11.9398 135.123 12.5761 134.808 13.1551C134.493 13.7341 134.065 14.2439 133.547 14.654C132.259 15.7212 130.456 16.2865 128.333 16.2865C126.544 16.3054 124.798 15.7355 123.367 14.6653C122.812 14.2705 122.342 13.7689 121.985 13.1901C121.628 12.6113 121.392 11.967 121.289 11.2954V11.2917Z" fill="#B08F2F"/>
<path d="M120.113 11.3514C119.932 11.2813 119.78 11.1499 119.686 10.9802C119.591 10.8104 119.559 10.613 119.595 10.4221C119.631 10.2313 119.733 10.0591 119.883 9.93546C120.034 9.81179 120.223 9.74445 120.418 9.74513C120.575 9.74416 120.73 9.78695 120.865 9.8687C120.35 10.0035 119.955 10.1982 120.113 11.3514Z" fill="#D58E23"/>
<path d="M136.579 11.3438C136.741 11.2834 136.879 11.1747 136.976 11.0325C137.073 10.8904 137.123 10.7218 137.12 10.55C137.123 10.3939 137.082 10.24 137.004 10.1047C136.926 9.9693 136.813 9.85743 136.677 9.78079C136.54 9.70415 136.385 9.66559 136.229 9.66917C136.072 9.67275 135.919 9.71833 135.787 9.80113C136.32 9.93967 136.745 10.1493 136.579 11.3438Z" fill="#D58E23"/>
<path d="M112.945 6.44276L114.824 5.03493C114.808 4.86205 114.743 4.69721 114.637 4.55988C114.53 4.42254 114.387 4.31845 114.223 4.25986L112.945 3.85547V6.44276Z" fill="#F7E830"/>
<path opacity="0.6" d="M114.88 5.06445L114.891 8.38189H110.432L114.88 5.06445Z" fill="#B9A12A"/>
<g style="mix-blend-mode:multiply" opacity="0.5">
<g style="mix-blend-mode:multiply" opacity="0.5">
<path d="M140.93 17.2002C137.717 17.2002 135.595 17.833 133.735 19.4468C131.757 21.0736 130.456 23.3759 130.087 25.9057L129.603 28.4218H123.791L118.907 28.9498L130.08 28.9722L130.129 28.5978L130.58 26.0292C131.102 23.1499 132.052 21.5773 133.893 20.0009C135.734 18.4246 137.86 17.7544 140.798 17.7544C141.925 17.7544 142.676 17.7207 142.984 18.2336C142.977 18.2112 142.748 17.1965 140.93 17.2002ZM127.679 38.8647H128.13L129.163 33.2482V33.1097H128.709L127.679 38.8647ZM139.036 28.3806H136.192L136.072 28.9872H140.024C139.937 28.7991 139.795 28.6415 139.617 28.5352C139.439 28.429 139.232 28.379 139.025 28.3919L139.036 28.3806Z" fill="#B2B4B2"/>
</g>
</g>
<path d="M143.909 6.44276L142.03 5.03493C142.046 4.86219 142.111 4.69757 142.218 4.56031C142.324 4.42306 142.468 4.31884 142.631 4.25986L143.909 3.85547V6.44276Z" fill="#F7E830"/>
<path opacity="0.6" d="M142 5.06445L141.989 8.38189H146.4L142 5.06445Z" fill="#B9A12A"/>
<path d="M31.4518 12.8886C31.5329 12.9825 31.5924 13.0929 31.6262 13.2122C31.6601 13.3315 31.6674 13.4567 31.6477 13.5791L29.657 26.2725C29.6399 26.4904 29.6301 26.6275 29.6301 26.7132C29.6301 27.1417 29.7109 27.4331 29.8749 27.5849C30.0361 27.7002 30.221 27.778 30.4161 27.8126C30.6022 27.8369 30.7747 27.9231 30.9058 28.0575C30.9942 28.1464 31.062 28.2537 31.1043 28.3718C31.1466 28.4898 31.1624 28.6158 31.1506 28.7406L31.0306 29.8792C31.0262 29.9863 30.999 30.0913 30.9508 30.1871C30.9027 30.2829 30.8348 30.3674 30.7515 30.435C30.587 30.545 30.4093 30.6339 30.2226 30.6995C29.8189 30.8438 29.3969 30.9303 28.969 30.9566C27.8965 30.9566 27.0664 30.7117 26.5008 30.222C25.9352 29.7323 25.6512 29.0247 25.6512 28.0966C25.6531 27.8224 25.6785 27.5488 25.7271 27.2788C25.7467 27.154 27.8916 13.4518 27.9136 13.3025C27.9436 13.0985 28.0459 12.912 28.2019 12.7772C28.3578 12.6423 28.5571 12.568 28.7633 12.5679H30.7931C30.92 12.5685 31.045 12.5976 31.159 12.6531C31.2731 12.7087 31.3731 12.7892 31.4518 12.8886ZM37.3014 17.4919H35.2813C35.075 17.4916 34.8755 17.5657 34.7194 17.7006C34.5633 17.8356 34.4612 18.0223 34.4317 18.2265L32.6247 29.698C32.6064 29.8206 32.6147 29.9457 32.649 30.0648C32.6832 30.1839 32.7426 30.2943 32.8231 30.3885C32.9036 30.4827 33.0034 30.5586 33.1158 30.611C33.2281 30.6633 33.3504 30.691 33.4743 30.6921H35.4944C35.7007 30.6925 35.9002 30.6184 36.0563 30.4834C36.2124 30.3485 36.3145 30.1618 36.344 29.9576L38.1511 18.4836C38.1705 18.3608 38.1631 18.2353 38.1294 18.1156C38.0956 17.996 38.0363 17.885 37.9556 17.7905C37.8748 17.696 37.7745 17.6202 37.6615 17.5682C37.5486 17.5162 37.4257 17.4894 37.3014 17.4895V17.4919ZM36.6134 16.3607C37.463 16.3607 38.0996 16.1379 38.5036 15.7045C38.9208 15.2422 39.1397 14.6346 39.1133 14.0125C39.1303 13.7897 39.0985 13.5659 39.0203 13.3566C38.9421 13.1473 38.8193 12.9576 38.6604 12.8005C38.3567 12.5312 37.8891 12.3965 37.2696 12.3965C36.4224 12.3965 35.7857 12.6193 35.3817 13.0551C34.9639 13.5172 34.7441 14.1247 34.7696 14.7471C34.7508 14.9719 34.7817 15.1981 34.86 15.4096C34.9382 15.6212 35.062 15.8129 35.2226 15.9714C35.5311 16.2285 35.9865 16.3607 36.6134 16.3607V16.3607ZM66.1846 17.8298C66.104 17.7235 66.0001 17.637 65.8808 17.5771C65.7615 17.5173 65.63 17.4856 65.4966 17.4846H63.359C63.1734 17.4852 62.993 17.5456 62.8444 17.6567C62.6958 17.7678 62.5869 17.9238 62.5338 18.1016C62.2889 18.8544 61.9456 19.5715 61.5128 20.2343C60.8125 21.3558 60.2371 22.0512 59.7498 22.3646L59.6714 22.4013C59.4976 22.487 59.2307 22.6168 58.288 22.7833L58.1705 22.8004L59.6396 13.5742C59.6586 13.4514 59.6509 13.3259 59.617 13.2063C59.5831 13.0867 59.5238 12.9758 59.4432 12.8812C59.3625 12.7866 59.2624 12.7106 59.1497 12.6582C59.037 12.6058 58.9143 12.5783 58.79 12.5777H56.7479C56.542 12.5779 56.343 12.6523 56.1875 12.7872C56.0319 12.9221 55.9301 13.1084 55.9007 13.3122L53.3199 29.6907C53.3004 29.8132 53.3078 29.9386 53.3414 30.0581C53.375 30.1775 53.4341 30.2883 53.5146 30.3828C53.5951 30.4773 53.6951 30.5532 53.8077 30.6053C53.9204 30.6574 54.043 30.6845 54.1671 30.6848H56.2116C56.4178 30.6846 56.6171 30.6103 56.773 30.4755C56.929 30.3406 57.0313 30.1542 57.0613 29.9502L57.7273 25.6897H59.0079L60.7708 30.1412C60.8336 30.3017 60.9434 30.4395 61.0858 30.5366C61.2283 30.6336 61.3967 30.6852 61.5691 30.6848H63.785C64.0125 30.6841 64.2305 30.5933 64.3912 30.4322C64.5518 30.2711 64.642 30.0528 64.642 29.8253C64.6428 29.7065 64.6186 29.5889 64.571 29.4801L62.551 24.2793L62.595 24.2402C63.582 23.3047 64.4385 22.2406 65.1415 21.0766C65.6459 20.3065 66.043 19.4712 66.3217 18.5938C66.3588 18.4656 66.3657 18.3307 66.3419 18.1994C66.3182 18.0681 66.2643 17.9442 66.1846 17.8372V17.8298ZM98.6795 17.4846H97.0781L97.4331 15.205C97.4499 15.0834 97.4404 14.9596 97.4055 14.8419C97.3705 14.7242 97.3108 14.6154 97.2304 14.5227C97.1499 14.4299 97.0506 14.3554 96.939 14.3042C96.8275 14.253 96.7062 14.2262 96.5835 14.2256H94.9674C94.7822 14.2274 94.6023 14.2882 94.4539 14.3991C94.3056 14.5101 94.1964 14.6654 94.1423 14.8426L93.3636 17.4968H92.4797C92.2752 17.496 92.0771 17.5684 91.9213 17.7009C91.7655 17.8334 91.6622 18.0172 91.63 18.2192L91.4317 19.4434C91.4119 19.5662 91.4189 19.6918 91.4523 19.8116C91.4858 19.9314 91.5448 20.0425 91.6253 20.1372C91.7059 20.232 91.806 20.3081 91.9189 20.3604C92.0317 20.4127 92.1546 20.4398 92.2789 20.44H92.8152L91.8627 26.5443C91.7931 26.942 91.7586 27.3451 91.7598 27.749C91.7598 28.8337 92.0463 29.6221 92.634 30.1583C93.2216 30.6946 94.1031 30.9615 95.2784 30.9615C95.896 30.9276 96.5067 30.814 97.0952 30.6236L97.3842 30.5232C97.4209 30.5088 97.4569 30.4924 97.4919 30.4742C97.6118 30.4078 97.7143 30.314 97.7909 30.2003C97.8675 30.0867 97.9161 29.9565 97.9326 29.8204L98.0796 28.5545C98.0935 28.4227 98.0774 28.2895 98.0325 28.1648C97.9875 28.0401 97.9149 27.9272 97.82 27.8346C97.7644 27.7822 97.7018 27.7377 97.6339 27.7024C97.5918 27.678 97.5475 27.6575 97.5017 27.6412C97.3655 27.6146 97.2262 27.6072 97.0879 27.6192H96.8602C96.767 27.6209 96.6737 27.6169 96.581 27.6069C96.3789 27.579 96.1861 27.5044 96.0179 27.389C95.9469 27.3229 95.7265 27.127 95.7265 26.4096C95.7265 26.341 95.7265 26.2333 95.751 26.0717L96.6251 20.44H98.437C98.6361 20.4403 98.829 20.3713 98.9827 20.2448C99.1364 20.1184 99.2413 19.9424 99.2794 19.7471L99.5242 18.5228C99.5479 18.3985 99.544 18.2705 99.5127 18.1479C99.4814 18.0254 99.4235 17.9112 99.3431 17.8135C99.2627 17.7158 99.1618 17.637 99.0475 17.5827C98.9332 17.5284 98.8084 17.4999 98.6819 17.4993L98.6795 17.4846ZM51.3831 18.6428C52.0956 19.605 52.458 20.8758 52.458 22.4184C52.4608 23.4184 52.3207 24.4136 52.0417 25.3738C51.7538 26.3454 51.3168 27.2664 50.7464 28.104C50.1141 29.0099 49.2509 29.7301 48.2465 30.1902C47.05 30.7382 45.7448 31.0077 44.4292 30.9786C43.7112 30.967 42.9947 30.9089 42.2842 30.8048L42.1985 30.7925L42.0418 32.3449C42.0418 32.3645 42.0418 32.3816 42.0418 32.3963L41.5937 35.1289C41.5616 35.3302 41.4586 35.5134 41.3032 35.6455C41.1478 35.7775 40.9504 35.8496 40.7465 35.8488H38.7216C38.5972 35.8489 38.4744 35.8221 38.3614 35.7701C38.2485 35.7181 38.1482 35.6422 38.0674 35.5477C37.9866 35.4532 37.9273 35.3423 37.8936 35.2227C37.8598 35.103 37.8524 34.9775 37.8719 34.8547L40.5139 18.2045C40.5433 18.0007 40.6451 17.8143 40.8007 17.6794C40.9563 17.5445 41.1552 17.4701 41.3611 17.4699H42.6735C42.789 17.4698 42.9033 17.4931 43.0096 17.5382C43.1159 17.5834 43.2119 17.6497 43.292 17.7329C43.372 17.8161 43.4344 17.9147 43.4754 18.0227C43.5164 18.1306 43.5352 18.2458 43.5305 18.3612L43.4816 19.7715L43.6383 19.5757C44.4966 18.5999 45.5934 17.8634 46.8214 17.4381C47.3215 17.2772 47.8435 17.1946 48.3689 17.1932C49.6764 17.2104 50.6656 17.6829 51.3831 18.6501V18.6428ZM48.6186 23.0869C48.6425 22.4386 48.5089 21.7942 48.2293 21.2088C48.1349 20.9841 47.9768 20.7918 47.7745 20.6556C47.5722 20.5194 47.3346 20.4454 47.0907 20.4425C46.5472 20.4425 45.9154 20.7926 45.2176 21.4831C44.5012 22.2003 43.8792 23.0058 43.3665 23.8802L42.7886 27.5531L42.8572 27.5751C43.5227 27.7735 44.2147 27.8693 44.9091 27.8591C46.1529 27.8591 47.0932 27.3547 47.7053 26.3606C48.3127 25.3775 48.6293 24.2425 48.6186 23.0869V23.0869ZM89.6075 17.3426C88.7705 17.5788 87.9866 17.9736 87.2985 18.5056C86.7318 18.9661 86.1998 19.4678 85.707 20.0066L85.5503 20.178L85.6335 18.393C85.6387 18.2761 85.6196 18.1594 85.5775 18.0503C85.5354 17.9411 85.4711 17.8419 85.3887 17.7588C85.3083 17.6748 85.2118 17.6078 85.1049 17.562C84.998 17.5161 84.883 17.4923 84.7667 17.4919H83.4445C83.2383 17.4921 83.0391 17.5664 82.8831 17.7012C82.7271 17.8361 82.6248 18.0225 82.5949 18.2265L80.7903 29.698C80.7712 29.8204 80.7788 29.9455 80.8126 30.0647C80.8464 30.1838 80.9056 30.2943 80.986 30.3885C81.0665 30.4827 81.1664 30.5583 81.2788 30.6103C81.3913 30.6623 81.5136 30.6894 81.6375 30.6897H83.682C83.8881 30.6899 84.0873 30.6158 84.243 30.4808C84.3986 30.3458 84.5003 30.1591 84.5292 29.9551L85.4842 23.8459C86.0508 23.0621 86.7653 22.3966 87.5875 21.8871C88.1782 21.5048 88.8405 21.2466 89.5341 21.128C89.7091 21.0999 89.8711 21.0185 89.9982 20.895C90.1253 20.7714 90.2112 20.6117 90.2442 20.4376L90.6408 18.3367C90.6682 18.1968 90.6601 18.0522 90.6174 17.9162C90.5746 17.7802 90.4985 17.6571 90.396 17.558C90.2924 17.4601 90.1663 17.3891 90.0287 17.3515C89.8912 17.314 89.7465 17.3109 89.6075 17.3426V17.3426ZM80.21 18.7383L78.4495 29.96C78.4195 30.164 78.3172 30.3504 78.1612 30.4853C78.0052 30.6201 77.806 30.6944 77.5998 30.6946H76.2898C76.1746 30.6949 76.0605 30.6718 75.9545 30.6268C75.8484 30.5818 75.7526 30.5157 75.6728 30.4326C75.5921 30.3493 75.5288 30.2508 75.4868 30.1427C75.4447 30.0346 75.4247 29.9192 75.4279 29.8033L75.4794 28.4125L75.3251 28.5839C74.9886 28.9502 74.6243 29.2899 74.2355 29.6001C73.6447 30.0445 72.9965 30.4069 72.3085 30.6774C71.7588 30.8753 71.1787 30.9756 70.5945 30.9737C69.2747 30.9737 68.2855 30.5036 67.5705 29.5364C66.8555 28.5692 66.4956 27.3058 66.4956 25.7583C66.4958 24.9684 66.5779 24.1806 66.7404 23.4077C66.9119 22.6094 67.1955 21.8395 67.5827 21.1207C67.9683 20.3798 68.4719 19.7066 69.0739 19.1276C69.7392 18.5154 70.5236 18.0469 71.378 17.7515C72.399 17.3867 73.477 17.2076 74.5611 17.2226C76.2273 17.2462 77.8875 17.4274 79.5195 17.7637C79.7393 17.8032 79.9349 17.9275 80.064 18.1098C80.1932 18.292 80.2456 18.5177 80.21 18.7383V18.7383ZM76.1674 20.6187L76.0988 20.5967C75.4317 20.4025 74.7393 20.3084 74.0445 20.3176C72.8031 20.3176 71.8628 20.8195 71.2482 21.8136C70.6424 22.7982 70.3267 23.9338 70.3374 25.0898C70.3146 25.7377 70.4473 26.3817 70.7242 26.9679C70.8198 27.1926 70.9784 27.3848 71.1809 27.5212C71.3834 27.6577 71.6211 27.7325 71.8653 27.7367C72.4089 27.7367 73.0406 27.3841 73.7384 26.6961C74.4535 25.9775 75.0747 25.1712 75.5871 24.2965L76.1674 20.6187ZM25.6854 15.1609L25.9303 13.5742C25.9474 13.4526 25.9383 13.3286 25.9035 13.2108C25.8687 13.0929 25.809 12.9839 25.7285 12.8911C25.6479 12.7983 25.5485 12.7238 25.4367 12.6727C25.3249 12.6216 25.2035 12.595 25.0806 12.5948H15.448C15.2421 12.5951 15.0432 12.6694 14.8876 12.8043C14.732 12.9392 14.6302 13.1256 14.6008 13.3294L12.0102 29.6858C11.9912 29.8082 11.9988 29.9332 12.0326 30.0524C12.0664 30.1716 12.1255 30.2821 12.206 30.3762C12.2865 30.4704 12.3863 30.5461 12.4988 30.5981C12.6112 30.6501 12.7336 30.6771 12.8574 30.6774H15.0807C15.2871 30.6778 15.4866 30.6037 15.6427 30.4687C15.7987 30.3338 15.9009 30.1471 15.9304 29.9429L16.9294 23.5962H22.4386C22.6447 23.5965 22.8439 23.5223 22.9996 23.3873C23.1553 23.2523 23.2569 23.0656 23.2858 22.8616L23.5136 21.4782C23.533 21.3553 23.5256 21.2296 23.4919 21.1098C23.4581 20.9901 23.3989 20.879 23.3181 20.7843C23.2374 20.6896 23.1371 20.6136 23.0242 20.5613C22.9113 20.509 22.7884 20.4819 22.6639 20.4816H17.4607L18.1463 15.8881H24.8382C25.0433 15.8892 25.2419 15.8162 25.3975 15.6826C25.5532 15.549 25.6554 15.3638 25.6854 15.1609V15.1609Z" fill="#2A55E5"/>
</svg>
